# xmcd
# Copyright (C) 1995-1998 Ti Kan
#
# Track frame offsets:
#       150
#       15075
#       30997
#       48997
#       64135
#       87225
#       108450
#       126825
#       141622
#       158175
#       173722
#
# Disc length: 2499 seconds
#
# Revision: 0
# Processed by: cddbd v1.5.2PL0 Copyright (c) Steve Scherf et al.
# Submitted via: CD-Import v1.0
#
DISCID=8909c10b
DTITLE=Piggnigg - Glashuus
DYEAR=05
DGENRE=
TTITLE0=Konstanz
TTITLE1=Mer Beidi
TTITLE2=Glashuus
TTITLE3=Din Name
TTITLE4=Wieder Wiiter
TTITLE5=November
TTITLE6=Fidiri
TTITLE7=Schliimer
TTITLE8=Ä Gänseblüemli
TTITLE9=Träumer
TTITLE10=Abklatsch
EXTD=
EXTT0=
EXTT1=
EXTT2=
EXTT3=
EXTT4=
EXTT5=
EXTT6=
EXTT7=
EXTT8=
EXTT9=
EXTT10=
PLAYORDER=
